<mxfile host="app.diagrams.net" agent="Mozilla/5.0 (Windows NT 10.0; Win64; x64; rv:130.0) Gecko/20100101 Firefox/130.0" version="24.7.17">
  <diagram name="Page-1" id="Jv_TQmSTfyp_RUovjXyt">
    <mxGraphModel dx="1193" dy="648" grid="1" gridSize="10" guides="1" tooltips="1" connect="1" arrows="1" fold="1" page="1" pageScale="1" pageWidth="850" pageHeight="1100" math="0" shadow="0">
      <root>
        <mxCell id="0" />
        <mxCell id="1" parent="0" />
        <mxCell id="Bxq7dNhiQGgo0WM1oG6--110" value="" style="rounded=0;whiteSpace=wrap;html=1;" vertex="1" parent="1">
          <mxGeometry x="385" y="310" width="20" height="60" as="geometry" />
        </mxCell>
        <mxCell id="Bxq7dNhiQGgo0WM1oG6--5" value="" style="rounded=0;whiteSpace=wrap;html=1;" vertex="1" parent="1">
          <mxGeometry x="170" y="180" width="20" height="260" as="geometry" />
        </mxCell>
        <mxCell id="Bxq7dNhiQGgo0WM1oG6--1" value="System" style="rounded=0;whiteSpace=wrap;html=1;" vertex="1" parent="1">
          <mxGeometry x="110" y="110" width="150" height="30" as="geometry" />
        </mxCell>
        <mxCell id="Bxq7dNhiQGgo0WM1oG6--6" value="" style="endArrow=none;dashed=1;html=1;dashPattern=1 3;strokeWidth=2;rounded=0;entryX=0.5;entryY=1;entryDx=0;entryDy=0;" edge="1" parent="1" source="Bxq7dNhiQGgo0WM1oG6--5" target="Bxq7dNhiQGgo0WM1oG6--1">
          <mxGeometry width="50" height="50" relative="1" as="geometry">
            <mxPoint x="185" y="600" as="sourcePoint" />
            <mxPoint x="450" y="280" as="targetPoint" />
          </mxGeometry>
        </mxCell>
        <mxCell id="Bxq7dNhiQGgo0WM1oG6--7" value="&lt;font style=&quot;font-size: 19px;&quot;&gt;\REGISTRATION&lt;/font&gt;" style="shape=note;whiteSpace=wrap;html=1;backgroundOutline=1;darkOpacity=0.05;" vertex="1" parent="1">
          <mxGeometry x="20" y="10" width="200" height="80" as="geometry" />
        </mxCell>
        <mxCell id="Bxq7dNhiQGgo0WM1oG6--8" value="" style="endArrow=classic;html=1;rounded=0;" edge="1" parent="1">
          <mxGeometry width="50" height="50" relative="1" as="geometry">
            <mxPoint x="40" y="160" as="sourcePoint" />
            <mxPoint x="180" y="160" as="targetPoint" />
          </mxGeometry>
        </mxCell>
        <mxCell id="Bxq7dNhiQGgo0WM1oG6--9" value="Patient input" style="edgeLabel;html=1;align=center;verticalAlign=middle;resizable=0;points=[];" vertex="1" connectable="0" parent="Bxq7dNhiQGgo0WM1oG6--8">
          <mxGeometry x="-0.6118" y="-2" relative="1" as="geometry">
            <mxPoint x="23" y="-12" as="offset" />
          </mxGeometry>
        </mxCell>
        <mxCell id="Bxq7dNhiQGgo0WM1oG6--10" value="" style="endArrow=classic;html=1;rounded=0;" edge="1" parent="1">
          <mxGeometry width="50" height="50" relative="1" as="geometry">
            <mxPoint x="190" y="190" as="sourcePoint" />
            <mxPoint x="180" y="230" as="targetPoint" />
            <Array as="points">
              <mxPoint x="240" y="190" />
              <mxPoint x="240" y="230" />
            </Array>
          </mxGeometry>
        </mxCell>
        <mxCell id="Bxq7dNhiQGgo0WM1oG6--11" value="createResult()" style="edgeLabel;html=1;align=center;verticalAlign=middle;resizable=0;points=[];" vertex="1" connectable="0" parent="Bxq7dNhiQGgo0WM1oG6--10">
          <mxGeometry x="-0.6118" y="-2" relative="1" as="geometry">
            <mxPoint x="21" y="-12" as="offset" />
          </mxGeometry>
        </mxCell>
        <mxCell id="Bxq7dNhiQGgo0WM1oG6--17" value="" style="endArrow=classic;html=1;rounded=0;" edge="1" parent="1">
          <mxGeometry width="50" height="50" relative="1" as="geometry">
            <mxPoint x="190" y="390" as="sourcePoint" />
            <mxPoint x="600" y="390" as="targetPoint" />
          </mxGeometry>
        </mxCell>
        <mxCell id="Bxq7dNhiQGgo0WM1oG6--18" value="createPatient()" style="edgeLabel;html=1;align=center;verticalAlign=middle;resizable=0;points=[];" vertex="1" connectable="0" parent="Bxq7dNhiQGgo0WM1oG6--17">
          <mxGeometry x="-0.6118" y="-2" relative="1" as="geometry">
            <mxPoint x="101" y="-12" as="offset" />
          </mxGeometry>
        </mxCell>
        <mxCell id="Bxq7dNhiQGgo0WM1oG6--26" value="" style="endArrow=none;html=1;rounded=0;dashed=1;dashPattern=8 8;startArrow=classic;startFill=1;endFill=0;" edge="1" parent="1">
          <mxGeometry width="50" height="50" relative="1" as="geometry">
            <mxPoint x="195" y="430" as="sourcePoint" />
            <mxPoint x="605" y="430" as="targetPoint" />
          </mxGeometry>
        </mxCell>
        <mxCell id="Bxq7dNhiQGgo0WM1oG6--28" value="conformation" style="edgeLabel;html=1;align=center;verticalAlign=middle;resizable=0;points=[];" vertex="1" connectable="0" parent="Bxq7dNhiQGgo0WM1oG6--26">
          <mxGeometry x="0.2972" y="2" relative="1" as="geometry">
            <mxPoint x="-71" y="-8" as="offset" />
          </mxGeometry>
        </mxCell>
        <mxCell id="Bxq7dNhiQGgo0WM1oG6--67" value="" style="endArrow=none;dashed=1;html=1;dashPattern=1 3;strokeWidth=2;rounded=0;entryX=0.5;entryY=1;entryDx=0;entryDy=0;" edge="1" parent="1" target="Bxq7dNhiQGgo0WM1oG6--5">
          <mxGeometry width="50" height="50" relative="1" as="geometry">
            <mxPoint x="180" y="490" as="sourcePoint" />
            <mxPoint x="185" y="140" as="targetPoint" />
          </mxGeometry>
        </mxCell>
        <mxCell id="Bxq7dNhiQGgo0WM1oG6--85" value="User" style="rounded=0;whiteSpace=wrap;html=1;" vertex="1" parent="1">
          <mxGeometry x="540" y="110" width="150" height="30" as="geometry" />
        </mxCell>
        <mxCell id="Bxq7dNhiQGgo0WM1oG6--86" value="" style="endArrow=none;dashed=1;html=1;dashPattern=1 3;strokeWidth=2;rounded=0;entryX=0.5;entryY=1;entryDx=0;entryDy=0;" edge="1" parent="1" source="Bxq7dNhiQGgo0WM1oG6--87" target="Bxq7dNhiQGgo0WM1oG6--85">
          <mxGeometry width="50" height="50" relative="1" as="geometry">
            <mxPoint x="615" y="650" as="sourcePoint" />
            <mxPoint x="610" y="250" as="targetPoint" />
          </mxGeometry>
        </mxCell>
        <mxCell id="Bxq7dNhiQGgo0WM1oG6--88" value="" style="endArrow=none;dashed=1;html=1;dashPattern=1 3;strokeWidth=2;rounded=0;entryX=0.5;entryY=1;entryDx=0;entryDy=0;" edge="1" parent="1" target="Bxq7dNhiQGgo0WM1oG6--87">
          <mxGeometry width="50" height="50" relative="1" as="geometry">
            <mxPoint x="615" y="500" as="sourcePoint" />
            <mxPoint x="615" y="140" as="targetPoint" />
          </mxGeometry>
        </mxCell>
        <mxCell id="Bxq7dNhiQGgo0WM1oG6--87" value="" style="rounded=0;whiteSpace=wrap;html=1;" vertex="1" parent="1">
          <mxGeometry x="605" y="380" width="20" height="60" as="geometry" />
        </mxCell>
        <mxCell id="Bxq7dNhiQGgo0WM1oG6--89" value="" style="endArrow=classic;html=1;rounded=0;fillColor=#f8cecc;strokeColor=#b85450;" edge="1" parent="1">
          <mxGeometry width="50" height="50" relative="1" as="geometry">
            <mxPoint x="190" y="255" as="sourcePoint" />
            <mxPoint x="180" y="295" as="targetPoint" />
            <Array as="points">
              <mxPoint x="240" y="255" />
              <mxPoint x="240" y="295" />
            </Array>
          </mxGeometry>
        </mxCell>
        <mxCell id="Bxq7dNhiQGgo0WM1oG6--90" value="token_required()" style="edgeLabel;html=1;align=center;verticalAlign=middle;resizable=0;points=[];" vertex="1" connectable="0" parent="Bxq7dNhiQGgo0WM1oG6--89">
          <mxGeometry x="-0.6118" y="-2" relative="1" as="geometry">
            <mxPoint x="21" y="-12" as="offset" />
          </mxGeometry>
        </mxCell>
        <mxCell id="Bxq7dNhiQGgo0WM1oG6--92" value="Permission Manager" style="rounded=0;whiteSpace=wrap;html=1;" vertex="1" parent="1">
          <mxGeometry x="320" y="110" width="150" height="30" as="geometry" />
        </mxCell>
        <mxCell id="Bxq7dNhiQGgo0WM1oG6--93" value="" style="endArrow=none;dashed=1;html=1;dashPattern=1 3;strokeWidth=2;rounded=0;entryX=0.5;entryY=1;entryDx=0;entryDy=0;" edge="1" parent="1" target="Bxq7dNhiQGgo0WM1oG6--92" source="Bxq7dNhiQGgo0WM1oG6--110">
          <mxGeometry width="50" height="50" relative="1" as="geometry">
            <mxPoint x="400" y="600" as="sourcePoint" />
            <mxPoint x="390" y="250" as="targetPoint" />
          </mxGeometry>
        </mxCell>
        <mxCell id="Bxq7dNhiQGgo0WM1oG6--106" value="" style="endArrow=classic;html=1;rounded=0;fillColor=#f8cecc;strokeColor=#b85450;" edge="1" parent="1">
          <mxGeometry width="50" height="50" relative="1" as="geometry">
            <mxPoint x="190" y="330" as="sourcePoint" />
            <mxPoint x="390" y="330" as="targetPoint" />
          </mxGeometry>
        </mxCell>
        <mxCell id="Bxq7dNhiQGgo0WM1oG6--107" value="checkPermissions()" style="edgeLabel;html=1;align=center;verticalAlign=middle;resizable=0;points=[];" vertex="1" connectable="0" parent="Bxq7dNhiQGgo0WM1oG6--106">
          <mxGeometry x="-0.6118" y="-2" relative="1" as="geometry">
            <mxPoint x="53" y="-12" as="offset" />
          </mxGeometry>
        </mxCell>
        <mxCell id="Bxq7dNhiQGgo0WM1oG6--108" value="" style="endArrow=none;html=1;rounded=0;dashed=1;dashPattern=8 8;startArrow=classic;startFill=1;endFill=0;fillColor=#f8cecc;strokeColor=#b85450;" edge="1" parent="1">
          <mxGeometry width="50" height="50" relative="1" as="geometry">
            <mxPoint x="190" y="360" as="sourcePoint" />
            <mxPoint x="390" y="360" as="targetPoint" />
          </mxGeometry>
        </mxCell>
        <mxCell id="Bxq7dNhiQGgo0WM1oG6--109" value="conformation" style="edgeLabel;html=1;align=center;verticalAlign=middle;resizable=0;points=[];" vertex="1" connectable="0" parent="Bxq7dNhiQGgo0WM1oG6--108">
          <mxGeometry x="0.2972" y="2" relative="1" as="geometry">
            <mxPoint x="-33" y="-8" as="offset" />
          </mxGeometry>
        </mxCell>
        <mxCell id="Bxq7dNhiQGgo0WM1oG6--111" value="" style="endArrow=none;dashed=1;html=1;dashPattern=1 3;strokeWidth=2;rounded=0;entryX=0.5;entryY=1;entryDx=0;entryDy=0;exitX=0.5;exitY=1;exitDx=0;exitDy=0;" edge="1" parent="1" source="Bxq7dNhiQGgo0WM1oG6--110" target="Bxq7dNhiQGgo0WM1oG6--110">
          <mxGeometry width="50" height="50" relative="1" as="geometry">
            <mxPoint x="395" y="470" as="sourcePoint" />
            <mxPoint x="395" y="140" as="targetPoint" />
          </mxGeometry>
        </mxCell>
        <mxCell id="Bxq7dNhiQGgo0WM1oG6--168" value="&lt;font style=&quot;font-size: 19px;&quot;&gt;\REGISTRATION-APPROVAL&lt;/font&gt;" style="shape=note;whiteSpace=wrap;html=1;backgroundOutline=1;darkOpacity=0.05;" vertex="1" parent="1">
          <mxGeometry x="30" y="530" width="230" height="80" as="geometry" />
        </mxCell>
        <mxCell id="Bxq7dNhiQGgo0WM1oG6--169" value="" style="rounded=0;whiteSpace=wrap;html=1;" vertex="1" parent="1">
          <mxGeometry x="445" y="840" width="20" height="60" as="geometry" />
        </mxCell>
        <mxCell id="Bxq7dNhiQGgo0WM1oG6--170" value="" style="rounded=0;whiteSpace=wrap;html=1;" vertex="1" parent="1">
          <mxGeometry x="230" y="710" width="20" height="340" as="geometry" />
        </mxCell>
        <mxCell id="Bxq7dNhiQGgo0WM1oG6--171" value="System" style="rounded=0;whiteSpace=wrap;html=1;" vertex="1" parent="1">
          <mxGeometry x="170" y="640" width="150" height="30" as="geometry" />
        </mxCell>
        <mxCell id="Bxq7dNhiQGgo0WM1oG6--172" value="" style="endArrow=none;dashed=1;html=1;dashPattern=1 3;strokeWidth=2;rounded=0;entryX=0.5;entryY=1;entryDx=0;entryDy=0;" edge="1" parent="1" source="Bxq7dNhiQGgo0WM1oG6--170" target="Bxq7dNhiQGgo0WM1oG6--171">
          <mxGeometry width="50" height="50" relative="1" as="geometry">
            <mxPoint x="245" y="1130" as="sourcePoint" />
            <mxPoint x="510" y="810" as="targetPoint" />
          </mxGeometry>
        </mxCell>
        <mxCell id="Bxq7dNhiQGgo0WM1oG6--173" value="" style="endArrow=classic;html=1;rounded=0;" edge="1" parent="1">
          <mxGeometry width="50" height="50" relative="1" as="geometry">
            <mxPoint x="100" y="690" as="sourcePoint" />
            <mxPoint x="240" y="690" as="targetPoint" />
          </mxGeometry>
        </mxCell>
        <mxCell id="Bxq7dNhiQGgo0WM1oG6--174" value="Admin" style="edgeLabel;html=1;align=center;verticalAlign=middle;resizable=0;points=[];" vertex="1" connectable="0" parent="Bxq7dNhiQGgo0WM1oG6--173">
          <mxGeometry x="-0.6118" y="-2" relative="1" as="geometry">
            <mxPoint x="23" y="-12" as="offset" />
          </mxGeometry>
        </mxCell>
        <mxCell id="Bxq7dNhiQGgo0WM1oG6--175" value="" style="endArrow=classic;html=1;rounded=0;" edge="1" parent="1">
          <mxGeometry width="50" height="50" relative="1" as="geometry">
            <mxPoint x="250" y="720" as="sourcePoint" />
            <mxPoint x="240" y="760" as="targetPoint" />
            <Array as="points">
              <mxPoint x="300" y="720" />
              <mxPoint x="300" y="760" />
            </Array>
          </mxGeometry>
        </mxCell>
        <mxCell id="Bxq7dNhiQGgo0WM1oG6--176" value="manageAccount()" style="edgeLabel;html=1;align=center;verticalAlign=middle;resizable=0;points=[];" vertex="1" connectable="0" parent="Bxq7dNhiQGgo0WM1oG6--175">
          <mxGeometry x="-0.6118" y="-2" relative="1" as="geometry">
            <mxPoint x="21" y="-12" as="offset" />
          </mxGeometry>
        </mxCell>
        <mxCell id="Bxq7dNhiQGgo0WM1oG6--177" value="" style="endArrow=classic;html=1;rounded=0;" edge="1" parent="1">
          <mxGeometry width="50" height="50" relative="1" as="geometry">
            <mxPoint x="250" y="920" as="sourcePoint" />
            <mxPoint x="660" y="920" as="targetPoint" />
          </mxGeometry>
        </mxCell>
        <mxCell id="Bxq7dNhiQGgo0WM1oG6--178" value="requestListOfPending()" style="edgeLabel;html=1;align=center;verticalAlign=middle;resizable=0;points=[];" vertex="1" connectable="0" parent="Bxq7dNhiQGgo0WM1oG6--177">
          <mxGeometry x="-0.6118" y="-2" relative="1" as="geometry">
            <mxPoint x="101" y="-12" as="offset" />
          </mxGeometry>
        </mxCell>
        <mxCell id="Bxq7dNhiQGgo0WM1oG6--179" value="" style="endArrow=none;html=1;rounded=0;dashed=1;dashPattern=8 8;startArrow=classic;startFill=1;endFill=0;" edge="1" parent="1">
          <mxGeometry width="50" height="50" relative="1" as="geometry">
            <mxPoint x="255" y="960" as="sourcePoint" />
            <mxPoint x="665" y="960" as="targetPoint" />
          </mxGeometry>
        </mxCell>
        <mxCell id="Bxq7dNhiQGgo0WM1oG6--180" value="info in jason" style="edgeLabel;html=1;align=center;verticalAlign=middle;resizable=0;points=[];" vertex="1" connectable="0" parent="Bxq7dNhiQGgo0WM1oG6--179">
          <mxGeometry x="0.2972" y="2" relative="1" as="geometry">
            <mxPoint x="-71" y="-8" as="offset" />
          </mxGeometry>
        </mxCell>
        <mxCell id="Bxq7dNhiQGgo0WM1oG6--181" value="" style="endArrow=none;dashed=1;html=1;dashPattern=1 3;strokeWidth=2;rounded=0;entryX=0.5;entryY=1;entryDx=0;entryDy=0;" edge="1" parent="1" target="Bxq7dNhiQGgo0WM1oG6--170">
          <mxGeometry width="50" height="50" relative="1" as="geometry">
            <mxPoint x="240" y="1090" as="sourcePoint" />
            <mxPoint x="245" y="670" as="targetPoint" />
          </mxGeometry>
        </mxCell>
        <mxCell id="Bxq7dNhiQGgo0WM1oG6--182" value="User" style="rounded=0;whiteSpace=wrap;html=1;" vertex="1" parent="1">
          <mxGeometry x="600" y="640" width="150" height="30" as="geometry" />
        </mxCell>
        <mxCell id="Bxq7dNhiQGgo0WM1oG6--183" value="" style="endArrow=none;dashed=1;html=1;dashPattern=1 3;strokeWidth=2;rounded=0;entryX=0.5;entryY=1;entryDx=0;entryDy=0;" edge="1" parent="1" source="Bxq7dNhiQGgo0WM1oG6--185" target="Bxq7dNhiQGgo0WM1oG6--182">
          <mxGeometry width="50" height="50" relative="1" as="geometry">
            <mxPoint x="675" y="1180" as="sourcePoint" />
            <mxPoint x="670" y="780" as="targetPoint" />
          </mxGeometry>
        </mxCell>
        <mxCell id="Bxq7dNhiQGgo0WM1oG6--184" value="" style="endArrow=none;dashed=1;html=1;dashPattern=1 3;strokeWidth=2;rounded=0;entryX=0.5;entryY=1;entryDx=0;entryDy=0;" edge="1" parent="1" target="Bxq7dNhiQGgo0WM1oG6--185">
          <mxGeometry width="50" height="50" relative="1" as="geometry">
            <mxPoint x="675" y="1030" as="sourcePoint" />
            <mxPoint x="675" y="670" as="targetPoint" />
          </mxGeometry>
        </mxCell>
        <mxCell id="Bxq7dNhiQGgo0WM1oG6--185" value="" style="rounded=0;whiteSpace=wrap;html=1;" vertex="1" parent="1">
          <mxGeometry x="665" y="910" width="20" height="60" as="geometry" />
        </mxCell>
        <mxCell id="Bxq7dNhiQGgo0WM1oG6--186" value="" style="endArrow=classic;html=1;rounded=0;fillColor=#f8cecc;strokeColor=#b85450;" edge="1" parent="1">
          <mxGeometry width="50" height="50" relative="1" as="geometry">
            <mxPoint x="250" y="785" as="sourcePoint" />
            <mxPoint x="240" y="825" as="targetPoint" />
            <Array as="points">
              <mxPoint x="300" y="785" />
              <mxPoint x="300" y="825" />
            </Array>
          </mxGeometry>
        </mxCell>
        <mxCell id="Bxq7dNhiQGgo0WM1oG6--187" value="token_required()" style="edgeLabel;html=1;align=center;verticalAlign=middle;resizable=0;points=[];" vertex="1" connectable="0" parent="Bxq7dNhiQGgo0WM1oG6--186">
          <mxGeometry x="-0.6118" y="-2" relative="1" as="geometry">
            <mxPoint x="21" y="-12" as="offset" />
          </mxGeometry>
        </mxCell>
        <mxCell id="Bxq7dNhiQGgo0WM1oG6--188" value="Permission Manager" style="rounded=0;whiteSpace=wrap;html=1;" vertex="1" parent="1">
          <mxGeometry x="380" y="640" width="150" height="30" as="geometry" />
        </mxCell>
        <mxCell id="Bxq7dNhiQGgo0WM1oG6--189" value="" style="endArrow=none;dashed=1;html=1;dashPattern=1 3;strokeWidth=2;rounded=0;entryX=0.5;entryY=1;entryDx=0;entryDy=0;" edge="1" parent="1" source="Bxq7dNhiQGgo0WM1oG6--169" target="Bxq7dNhiQGgo0WM1oG6--188">
          <mxGeometry width="50" height="50" relative="1" as="geometry">
            <mxPoint x="460" y="1130" as="sourcePoint" />
            <mxPoint x="450" y="780" as="targetPoint" />
          </mxGeometry>
        </mxCell>
        <mxCell id="Bxq7dNhiQGgo0WM1oG6--190" value="" style="endArrow=classic;html=1;rounded=0;fillColor=#f8cecc;strokeColor=#b85450;" edge="1" parent="1">
          <mxGeometry width="50" height="50" relative="1" as="geometry">
            <mxPoint x="250" y="860" as="sourcePoint" />
            <mxPoint x="450" y="860" as="targetPoint" />
          </mxGeometry>
        </mxCell>
        <mxCell id="Bxq7dNhiQGgo0WM1oG6--191" value="checkPermissions()" style="edgeLabel;html=1;align=center;verticalAlign=middle;resizable=0;points=[];" vertex="1" connectable="0" parent="Bxq7dNhiQGgo0WM1oG6--190">
          <mxGeometry x="-0.6118" y="-2" relative="1" as="geometry">
            <mxPoint x="53" y="-12" as="offset" />
          </mxGeometry>
        </mxCell>
        <mxCell id="Bxq7dNhiQGgo0WM1oG6--192" value="" style="endArrow=none;html=1;rounded=0;dashed=1;dashPattern=8 8;startArrow=classic;startFill=1;endFill=0;fillColor=#f8cecc;strokeColor=#b85450;" edge="1" parent="1">
          <mxGeometry width="50" height="50" relative="1" as="geometry">
            <mxPoint x="250" y="890" as="sourcePoint" />
            <mxPoint x="450" y="890" as="targetPoint" />
          </mxGeometry>
        </mxCell>
        <mxCell id="Bxq7dNhiQGgo0WM1oG6--193" value="conformation" style="edgeLabel;html=1;align=center;verticalAlign=middle;resizable=0;points=[];" vertex="1" connectable="0" parent="Bxq7dNhiQGgo0WM1oG6--192">
          <mxGeometry x="0.2972" y="2" relative="1" as="geometry">
            <mxPoint x="-33" y="-8" as="offset" />
          </mxGeometry>
        </mxCell>
        <mxCell id="Bxq7dNhiQGgo0WM1oG6--194" value="" style="endArrow=none;dashed=1;html=1;dashPattern=1 3;strokeWidth=2;rounded=0;entryX=0.5;entryY=1;entryDx=0;entryDy=0;exitX=0.5;exitY=1;exitDx=0;exitDy=0;" edge="1" parent="1" source="Bxq7dNhiQGgo0WM1oG6--169" target="Bxq7dNhiQGgo0WM1oG6--169">
          <mxGeometry width="50" height="50" relative="1" as="geometry">
            <mxPoint x="455" y="1000" as="sourcePoint" />
            <mxPoint x="455" y="670" as="targetPoint" />
          </mxGeometry>
        </mxCell>
        <mxCell id="Bxq7dNhiQGgo0WM1oG6--196" value="" style="endArrow=classic;html=1;rounded=0;" edge="1" parent="1">
          <mxGeometry width="50" height="50" relative="1" as="geometry">
            <mxPoint x="250" y="1000" as="sourcePoint" />
            <mxPoint x="660" y="1000" as="targetPoint" />
          </mxGeometry>
        </mxCell>
        <mxCell id="Bxq7dNhiQGgo0WM1oG6--197" value="aprovePatient()" style="edgeLabel;html=1;align=center;verticalAlign=middle;resizable=0;points=[];" vertex="1" connectable="0" parent="Bxq7dNhiQGgo0WM1oG6--196">
          <mxGeometry x="-0.6118" y="-2" relative="1" as="geometry">
            <mxPoint x="101" y="-12" as="offset" />
          </mxGeometry>
        </mxCell>
        <mxCell id="Bxq7dNhiQGgo0WM1oG6--198" value="" style="rounded=0;whiteSpace=wrap;html=1;" vertex="1" parent="1">
          <mxGeometry x="665" y="990" width="20" height="60" as="geometry" />
        </mxCell>
        <mxCell id="Bxq7dNhiQGgo0WM1oG6--199" value="" style="endArrow=none;html=1;rounded=0;dashed=1;dashPattern=8 8;startArrow=classic;startFill=1;endFill=0;" edge="1" parent="1">
          <mxGeometry width="50" height="50" relative="1" as="geometry">
            <mxPoint x="250" y="1030" as="sourcePoint" />
            <mxPoint x="660" y="1030" as="targetPoint" />
          </mxGeometry>
        </mxCell>
        <mxCell id="Bxq7dNhiQGgo0WM1oG6--200" value="conformation()" style="edgeLabel;html=1;align=center;verticalAlign=middle;resizable=0;points=[];" vertex="1" connectable="0" parent="Bxq7dNhiQGgo0WM1oG6--199">
          <mxGeometry x="0.2972" y="2" relative="1" as="geometry">
            <mxPoint x="-71" y="-8" as="offset" />
          </mxGeometry>
        </mxCell>
        <mxCell id="Bxq7dNhiQGgo0WM1oG6--201" value="" style="endArrow=classic;html=1;rounded=0;" edge="1" parent="1">
          <mxGeometry width="50" height="50" relative="1" as="geometry">
            <mxPoint x="250" y="1080" as="sourcePoint" />
            <mxPoint x="660" y="1080" as="targetPoint" />
          </mxGeometry>
        </mxCell>
        <mxCell id="Bxq7dNhiQGgo0WM1oG6--202" value="createWorker()" style="edgeLabel;html=1;align=center;verticalAlign=middle;resizable=0;points=[];" vertex="1" connectable="0" parent="Bxq7dNhiQGgo0WM1oG6--201">
          <mxGeometry x="-0.6118" y="-2" relative="1" as="geometry">
            <mxPoint x="101" y="-12" as="offset" />
          </mxGeometry>
        </mxCell>
        <mxCell id="Bxq7dNhiQGgo0WM1oG6--203" value="" style="endArrow=classic;html=1;rounded=0;" edge="1" parent="1">
          <mxGeometry width="50" height="50" relative="1" as="geometry">
            <mxPoint x="255" y="1130" as="sourcePoint" />
            <mxPoint x="665" y="1130" as="targetPoint" />
          </mxGeometry>
        </mxCell>
        <mxCell id="Bxq7dNhiQGgo0WM1oG6--204" value="deleteAccount()" style="edgeLabel;html=1;align=center;verticalAlign=middle;resizable=0;points=[];" vertex="1" connectable="0" parent="Bxq7dNhiQGgo0WM1oG6--203">
          <mxGeometry x="-0.6118" y="-2" relative="1" as="geometry">
            <mxPoint x="101" y="-12" as="offset" />
          </mxGeometry>
        </mxCell>
      </root>
    </mxGraphModel>
  </diagram>
</mxfile>
